<svg width="23" height="26" viewBox="0 0 23 26" fill="none" xmlns="http://www.w3.org/2000/svg">
<path fill-rule="evenodd" clip-rule="evenodd" d="M7.99226 3.24024C11.2994 0.0745817 16.6467 0.0745817 19.9539 3.24024C23.2818 6.42581 23.2818 11.6065 19.9539 14.7921L11.0215 23.3423C8.67262 25.5907 4.87892 25.5907 2.53002 23.3423C0.160327 21.074 0.160325 17.3804 2.53002 15.1121L11.3339 6.68493C12.7245 5.35377 14.9646 5.35378 16.3552 6.68493C17.7667 8.03599 17.7667 10.2424 16.3552 11.5935L7.48713 20.0822C7.15085 20.404 6.6173 20.3924 6.2954 20.0561C5.97351 19.7198 5.98517 19.1863 6.32145 18.8644L15.1896 10.3757C15.9076 9.68839 15.9076 8.58999 15.1896 7.90271C14.4508 7.19553 13.2383 7.19553 12.4995 7.90271L3.6957 16.3299C2.01945 17.9344 2.01945 20.52 3.6957 22.1245C5.39274 23.749 8.15881 23.749 9.85584 22.1245L18.7882 13.5743C21.4227 11.0525 21.4227 6.97981 18.7882 4.45802C16.1329 1.91634 11.8132 1.91634 9.15794 4.45802L1.96064 11.3474C1.62435 11.6693 1.0908 11.6576 0.768905 11.3214C0.447011 10.9851 0.458674 10.4515 0.794955 10.1296L7.99226 3.24024Z" fill="#02040F"/>
</svg>
