<svg width="35" height="34" viewBox="0 0 35 34" fill="none" xmlns="http://www.w3.org/2000/svg">
<path fill-rule="evenodd" clip-rule="evenodd" d="M17.6936 6.55176C11.9523 6.55176 7.29807 11.206 7.29807 16.9473C7.29807 22.6886 11.9523 27.3428 17.6936 27.3428C23.4349 27.3428 28.0892 22.6886 28.0892 16.9473C28.0892 11.206 23.4349 6.55176 17.6936 6.55176ZM5.6123 16.9473C5.6123 10.275 11.0213 4.866 17.6936 4.866C24.3659 4.866 29.7749 10.275 29.7749 16.9473C29.7749 23.6196 24.3659 29.0286 17.6936 29.0286C11.0213 29.0286 5.6123 23.6196 5.6123 16.9473ZM13.6449 20.9408C13.9221 20.5668 14.45 20.4883 14.824 20.7655C15.6425 21.3723 16.6306 21.7236 17.6936 21.7236C18.7567 21.7236 19.7447 21.3723 20.5632 20.7655C20.9372 20.4883 21.4651 20.5668 21.7423 20.9408C22.0195 21.3147 21.941 21.8426 21.5671 22.1198C20.4742 22.9299 19.1377 23.4094 17.6936 23.4094C16.2495 23.4094 14.913 22.9299 13.8202 22.1198C13.4462 21.8426 13.3677 21.3147 13.6449 20.9408Z" fill="#02040F"/>
<path d="M22.189 15.2615C22.189 16.1926 21.6858 16.9473 21.0651 16.9473C20.4445 16.9473 19.9413 16.1926 19.9413 15.2615C19.9413 14.3305 20.4445 13.5758 21.0651 13.5758C21.6858 13.5758 22.189 14.3305 22.189 15.2615Z" fill="#02040F"/>
<path d="M15.4459 15.2615C15.4459 16.1926 14.9428 16.9473 14.3221 16.9473C13.7014 16.9473 13.1982 16.1926 13.1982 15.2615C13.1982 14.3305 13.7014 13.5758 14.3221 13.5758C14.9428 13.5758 15.4459 14.3305 15.4459 15.2615Z" fill="#02040F"/>
</svg>
