<svg width="34" height="34" viewBox="0 0 34 34" fill="none" xmlns="http://www.w3.org/2000/svg">
<path fill-rule="evenodd" clip-rule="evenodd" d="M13.8373 7.90317L21.4408 11.3241C23.7521 12.3639 25.5712 13.1823 26.8052 13.9573C28.024 14.7228 28.9765 15.6304 28.9765 16.9473C28.9765 18.2642 28.024 19.1718 26.8052 19.9373C25.5712 20.7123 23.7521 21.5307 21.4408 22.5705L13.8373 25.9914C12.4246 26.627 11.3256 27.1215 10.4675 27.4424C9.62777 27.7564 8.87728 27.9626 8.20996 27.89C6.59138 27.714 5.19861 26.6041 4.86152 25.0372C4.71865 24.373 4.91842 23.6301 5.20545 22.8583C5.50263 22.0592 5.97496 21.0331 6.57669 19.726L6.59291 19.6908C7.0632 18.6692 7.24419 18.266 7.33653 17.8639C7.47545 17.2589 7.47545 16.6357 7.33653 16.0307C7.24419 15.6286 7.0632 15.2254 6.59291 14.2038L6.57669 14.1686C5.97495 12.8615 5.50263 11.8354 5.20545 11.0363C4.91842 10.2645 4.71866 9.52158 4.86152 8.85745C5.19861 7.29048 6.59138 6.18057 8.20996 6.00456C8.87728 5.93199 9.62777 6.13821 10.4675 6.45222C11.3256 6.77312 12.4246 7.26757 13.8373 7.90317ZM9.87704 8.0312C9.05195 7.72266 8.63044 7.65454 8.3922 7.68044C7.39416 7.78897 6.67339 8.45053 6.50959 9.21198C6.47911 9.35366 6.50039 9.6821 6.78549 10.4487C7.05775 11.1808 7.50278 12.149 8.12422 13.4989C8.13783 13.5285 8.15129 13.5577 8.16459 13.5866C8.58154 14.4921 8.84345 15.0608 8.97954 15.6535C9.17547 16.5067 9.17547 17.3879 8.97954 18.2411C8.84345 18.8338 8.58154 19.4026 8.16458 20.308C8.15128 20.3369 8.13783 20.3661 8.12422 20.3957C7.50278 21.7456 7.05775 22.7138 6.78549 23.4459C6.50039 24.2125 6.47911 24.5409 6.50958 24.6826C6.67339 25.4441 7.39415 26.1056 8.3922 26.2142C8.63044 26.2401 9.05194 26.1719 9.87704 25.8634C10.6776 25.564 11.7266 25.0925 13.1761 24.4404L20.681 21.0639C23.0751 19.9867 24.7858 19.2149 25.9086 18.5097C27.0587 17.7874 27.2907 17.3182 27.2907 16.9473C27.2907 16.5764 27.0587 16.1072 25.9086 15.3849C24.7858 14.6797 23.0751 13.9079 20.681 12.8307L13.1761 9.4542C11.7266 8.80206 10.6776 8.33056 9.87704 8.0312Z" fill="#02040F"/>
</svg>
